<svg xmlns="http://www.w3.org/2000/svg" viewBox="0 0 1833 440" width="1833" height="440">

<g transform="translate(70,70.0) scale(0.5)"><path d="M 300 136 C 384 136, 450 202, 450 286 C 450 370, 384 436, 300 436 C 216 436, 150 370, 150 286 C 150 202, 216 136, 300 136 Z" fill="#6BB3DE"/><path d="M 300 286 L 356 156 C 398 172, 428 206, 440 250 Z" fill="#C9A05B"/>
<path d="M 300 136 C 384 136, 450 202, 450 286 C 450 370, 384 436, 300 436 C 216 436, 150 370, 150 286 C 150 202, 216 136, 300 136 Z" fill="none" stroke="#EAF2F8" stroke-width="16" stroke-linejoin="round"/>
<path d="M 300 198 C 350 198, 388 236, 388 286 C 388 336, 350 374, 300 374 C 250 374, 212 336, 212 286 C 212 236, 250 198, 300 198 Z" fill="none" stroke="#EAF2F8" stroke-width="6" opacity="0.9"/>
<path d="M 152 286 L 448 286" stroke="#EAF2F8" stroke-width="5" opacity="0.7"/>
<path d="M 300 138 L 300 434" stroke="#EAF2F8" stroke-width="5" opacity="0.7"/>
<path d="M 300 286 L 356 156" stroke="#EAF2F8" stroke-width="7" stroke-linecap="round"/>
<circle cx="300" cy="286" r="10" fill="#EAF2F8"/>
<circle cx="362" cy="232" r="13" fill="#C9A05B" stroke="#EAF2F8" stroke-width="7"/>
<circle cx="244" cy="342" r="11" fill="#C9A05B" stroke="#EAF2F8" stroke-width="7"/></g>
<g transform="translate(404.0,142.7)"><path d="M147.2 140.6Q150.1 140.6 150.1 143.4L150.1 149.2Q150.1 152.0 147.2 152.0L88.9 152.0Q86.1 152.0 86.1 149.2L86.1 143.4Q86.1 140.6 88.9 140.6L90.1 140.6Q94.8 140.6 97.1 137.8Q99.4 135.1 99.4 131.3Q99.4 126.9 96.9 122.5L79.6 90.2Q73.9 90.8 67.3 90.8L53.0 90.8L53.0 122.5Q53.0 130.2 55.9 135.4Q58.7 140.6 65.7 140.6L66.9 140.6Q69.7 140.6 69.7 143.4L69.7 149.2Q69.7 152.0 66.9 152.0L8.5 152.0Q5.7 152.0 5.7 149.2L5.7 143.4Q5.7 140.6 8.5 140.6L9.9 140.6Q17.1 140.6 19.9 135.4Q22.6 130.2 22.6 122.5L22.6 39.0Q22.6 31.2 19.7 26.0Q16.7 20.9 8.7 20.9Q5.9 20.9 5.9 18.1L5.9 12.3Q5.9 9.5 8.7 9.5L78.5 9.5Q93.9 9.5 105.3 15.0Q116.7 20.5 122.9 29.7Q129.2 38.8 129.2 49.6Q129.2 59.3 124.1 68.4Q118.9 77.5 106.6 83.4L127.3 122.5Q131.1 129.6 135.2 135.1Q139.3 140.6 146.3 140.6L147.2 140.6ZM64.0 77.3Q83.0 77.3 91.9 69.9Q100.7 62.5 100.7 49.6Q100.7 36.5 92.5 28.7Q84.4 20.9 70.1 20.9L53.0 20.9L53.0 77.3L64.0 77.3ZM184.9 118.0Q188.1 126.0 195.2 132.3Q202.4 138.5 213.4 138.5Q219.5 138.5 226.1 135.1Q232.8 131.7 237.7 124.5Q238.2 123.5 239.2 123.5Q240.1 123.5 241.2 124.1Q242.3 124.6 246.8 127.3Q247.6 127.9 247.6 128.8Q247.6 130.2 246.4 132.1Q241.1 141.9 232.0 148.2Q222.9 154.5 208.2 154.5Q192.5 154.5 181.1 147.5Q169.7 140.4 163.5 128.8Q157.3 117.2 157.3 103.6Q157.3 90.4 161.2 81.0Q165.1 71.6 171.6 65.8Q178.0 60.0 186.1 57.3Q194.2 54.5 202.5 54.5Q212.0 54.5 219.2 58.2Q226.5 61.9 231.5 67.6Q236.6 73.3 239.1 79.7Q241.7 86.1 241.7 91.6Q241.7 93.1 240.0 93.9L184.9 118.0ZM213.2 90.8Q213.2 81.7 208.8 75.8Q204.4 69.9 197.8 69.9Q190.0 69.9 185.4 76.1Q180.9 82.3 180.9 91.6Q180.9 94.4 181.2 98.6Q181.5 102.8 182.6 106.2L213.2 90.8ZM335.4 86.5Q334.2 87.0 333.5 87.0Q332.1 87.0 331.0 85.7Q322.4 74.9 313.1 70.5Q303.8 66.1 297.0 66.1Q292.0 66.1 287.9 68.2Q283.7 70.3 283.7 75.8Q283.7 80.0 286.8 82.7Q289.9 85.5 294.9 87.2Q299.8 88.9 305.0 90.2Q312.3 92.0 319.9 94.3Q327.4 96.5 333.6 100.2Q339.9 103.9 343.8 109.5Q347.7 115.0 347.7 123.3Q347.7 132.2 342.8 139.3Q338.0 146.3 329.1 150.4Q320.2 154.5 307.8 154.5Q301.9 154.5 296.3 153.0Q290.7 151.6 285.7 149.3Q284.6 148.8 284.1 148.8Q282.7 148.8 282.7 150.1Q282.7 150.5 283.1 151.6Q283.5 152.8 283.5 153.1Q283.5 154.7 281.2 154.7L274.3 154.7Q272.3 154.7 271.1 152.8L254.8 122.2Q254.2 121.0 254.2 120.5Q254.2 119.1 255.7 118.2L261.6 114.8Q262.8 114.2 263.3 114.2Q264.5 114.2 265.4 115.9Q274.7 129.8 285.8 135.7Q297.0 141.6 308.5 141.6Q326.8 141.6 326.8 130.7Q326.8 125.8 322.3 122.5Q317.9 119.3 311.3 117.2Q304.7 115.1 298.1 113.6Q286.0 110.6 278.7 106.7Q271.5 102.8 267.9 98.3Q264.3 93.9 263.0 89.4Q261.8 84.9 261.8 80.8Q261.8 69.4 270.5 62.0Q279.3 54.5 294.3 54.5Q303.2 54.5 310.1 56.9Q316.9 59.3 319.6 60.8Q320.3 61.2 320.7 61.2Q321.3 61.2 321.3 60.4Q321.3 59.9 320.7 58.1Q320.5 57.2 320.4 56.7Q320.3 56.2 320.3 55.9Q320.3 54.0 322.8 54.0L327.8 54.0Q330.2 54.0 331.0 56.1L340.5 80.2Q341.1 81.3 341.1 82.1Q341.1 83.4 339.5 84.2L335.4 86.5ZM491.1 106.4Q492.3 107.0 493.0 107.4Q493.8 107.9 493.8 108.9Q493.8 109.2 493.4 110.4Q490.4 117.8 485.2 125.5Q479.9 133.2 472.2 139.8Q464.5 146.5 454.0 150.5Q443.5 154.5 429.8 154.5Q407.0 154.5 391.2 145.0Q375.4 135.5 367.3 119.0Q359.1 102.6 359.1 82.3Q359.1 72.8 361.2 62.4Q363.3 52.1 368.0 42.2Q372.8 32.3 380.9 24.4Q388.9 16.5 400.9 11.9Q412.9 7.2 429.2 7.2Q442.9 7.2 452.8 10.7Q462.6 14.1 469.3 19.3Q475.9 24.5 479.9 30.2Q483.9 35.9 485.6 40.9Q487.3 45.8 487.3 48.3Q487.3 50.9 484.1 52.1L460.9 60.2Q459.0 61.0 457.5 61.0Q455.2 61.0 455.2 59.1Q455.2 58.7 455.4 56.3Q455.6 53.8 455.6 52.8Q455.6 46.0 453.1 39.0Q450.7 31.9 444.6 27.1Q438.5 22.2 427.7 22.2Q417.4 22.2 410.5 27.2Q403.6 32.1 399.4 40.1Q395.2 48.1 393.4 57.0Q391.6 65.9 391.6 73.9Q391.6 92.3 395.9 106.3Q400.3 120.3 409.5 128.2Q418.8 136.0 432.8 136.0Q446.9 136.0 455.9 131.1Q464.9 126.2 470.3 119.0Q475.8 111.9 478.8 105.1Q479.9 102.6 482.0 102.6Q483.0 102.6 484.5 103.4L491.1 106.4ZM548.1 54.5Q559.0 54.5 568.2 58.8Q577.4 63.1 584.1 70.4Q590.7 77.7 594.4 86.7Q598.1 95.8 598.1 105.5Q598.1 119.5 591.5 130.6Q584.8 141.7 574.0 148.1Q563.2 154.5 550.4 154.5Q539.6 154.5 530.5 150.3Q521.4 146.1 514.6 139.0Q507.9 131.9 504.2 122.7Q500.5 113.4 500.5 103.4Q500.5 89.5 506.9 78.5Q513.4 67.5 524.2 61.0Q535.0 54.5 548.1 54.5ZM556.3 139.1Q559.9 139.1 564.3 137.2Q568.7 135.3 572.0 130.5Q575.3 125.8 575.3 117.4Q575.3 110.8 572.7 102.7Q570.2 94.6 565.7 87.1Q561.3 79.6 555.3 74.8Q549.3 69.9 542.3 69.9Q534.5 69.9 528.8 75.7Q523.1 81.5 523.1 91.6Q523.1 98.0 525.6 106.2Q528.2 114.4 532.6 121.9Q537.1 129.4 543.2 134.2Q549.3 139.1 556.3 139.1ZM794.9 140.6Q797.8 140.6 797.8 143.4L797.8 149.2Q797.8 152.0 794.9 152.0L741.4 152.0Q738.5 152.0 738.5 149.2L738.5 143.4Q738.5 140.6 741.4 140.6L742.3 140.6Q748.4 140.6 750.3 136.1Q752.2 131.7 752.2 122.5L752.2 90.1Q752.2 84.9 751.3 80.7Q750.5 76.4 747.5 73.8Q744.6 71.2 738.5 71.2Q730.3 71.2 724.2 76.4Q718.0 81.5 713.8 89.3L713.8 122.5Q713.8 133.0 717.2 136.8Q720.5 140.6 726.0 140.6L727.5 140.6Q730.3 140.6 730.3 143.4L730.3 149.2Q730.3 152.0 727.5 152.0L675.8 152.0Q673.0 152.0 673.0 149.2L673.0 143.4Q673.0 140.6 675.8 140.6L677.1 140.6Q681.2 140.6 684.2 136.8Q687.2 133.0 687.2 122.5L687.2 90.1Q687.2 80.9 684.9 76.1Q682.5 71.2 673.6 71.2Q668.8 71.2 664.1 73.6Q659.3 76.0 655.7 79.7Q652.1 83.4 650.4 87.6L650.4 122.5Q650.4 130.2 653.7 135.4Q657.0 140.6 662.5 140.6L662.9 140.6Q665.7 140.6 665.7 143.4L665.7 149.2Q665.7 152.0 662.9 152.0L609.5 152.0Q606.7 152.0 606.7 149.2L606.7 143.4Q606.7 140.6 609.5 140.6L609.9 140.6Q616.9 140.6 620.4 135.4Q623.8 130.2 623.8 122.5L623.8 98.6Q623.8 93.5 623.1 88.7Q622.4 84.0 620.1 80.7Q617.7 77.3 612.4 76.8Q610.3 76.6 610.3 74.3L610.3 67.8Q610.3 65.9 612.9 65.4Q626.6 63.3 636.4 58.9Q646.2 54.5 650.0 51.9Q650.9 51.1 651.5 51.1L651.7 51.1Q652.1 51.1 652.1 51.5Q652.1 51.9 651.9 53.0L648.6 76.4Q651.3 72.0 655.7 67.0Q660.0 61.9 666.5 58.2Q673.0 54.5 681.5 54.5Q695.6 54.5 702.4 59.8Q709.3 65.0 711.7 73.2Q718.2 64.8 726.8 59.7Q735.5 54.5 746.7 54.5Q756.9 54.5 763.3 57.7Q769.7 60.8 773.1 66.0Q776.5 71.2 777.8 77.8Q779.0 84.4 779.0 91.2L779.0 122.5Q779.0 130.2 782.5 135.4Q786.0 140.6 792.9 140.6L794.9 140.6ZM991.8 140.6Q994.6 140.6 994.6 143.4L994.6 149.2Q994.6 152.0 991.8 152.0L938.2 152.0Q935.4 152.0 935.4 149.2L935.4 143.4Q935.4 140.6 938.2 140.6L939.2 140.6Q945.2 140.6 947.1 136.1Q949.0 131.7 949.0 122.5L949.0 90.1Q949.0 84.9 948.2 80.7Q947.3 76.4 944.4 73.8Q941.4 71.2 935.4 71.2Q927.2 71.2 921.0 76.4Q914.8 81.5 910.7 89.3L910.7 122.5Q910.7 133.0 914.0 136.8Q917.3 140.6 922.8 140.6L924.3 140.6Q927.2 140.6 927.2 143.4L927.2 149.2Q927.2 152.0 924.3 152.0L872.7 152.0Q869.8 152.0 869.8 149.2L869.8 143.4Q869.8 140.6 872.7 140.6L874.0 140.6Q878.0 140.6 881.0 136.8Q884.1 133.0 884.1 122.5L884.1 90.1Q884.1 80.9 881.7 76.1Q879.3 71.2 870.4 71.2Q865.6 71.2 860.9 73.6Q856.1 76.0 852.5 79.7Q848.9 83.4 847.2 87.6L847.2 122.5Q847.2 130.2 850.5 135.4Q853.9 140.6 859.4 140.6L859.7 140.6Q862.6 140.6 862.6 143.4L862.6 149.2Q862.6 152.0 859.7 152.0L806.4 152.0Q803.5 152.0 803.5 149.2L803.5 143.4Q803.5 140.6 806.4 140.6L806.7 140.6Q813.8 140.6 817.2 135.4Q820.6 130.2 820.6 122.5L820.6 98.6Q820.6 93.5 819.9 88.7Q819.3 84.0 816.9 80.7Q814.5 77.3 809.2 76.8Q807.1 76.6 807.1 74.3L807.1 67.8Q807.1 65.9 809.8 65.4Q823.5 63.3 833.2 58.9Q843.0 54.5 846.8 51.9Q847.8 51.1 848.3 51.1L848.5 51.1Q848.9 51.1 848.9 51.5Q848.9 51.9 848.7 53.0L845.5 76.4Q848.2 72.0 852.5 67.0Q856.9 61.9 863.4 58.2Q869.8 54.5 878.4 54.5Q892.4 54.5 899.3 59.8Q906.1 65.0 908.6 73.2Q915.0 64.8 923.7 59.7Q932.3 54.5 943.5 54.5Q953.8 54.5 960.1 57.7Q966.5 60.8 969.9 66.0Q973.4 71.2 974.6 77.8Q975.8 84.4 975.8 91.2L975.8 122.5Q975.8 130.2 979.3 135.4Q982.9 140.6 989.7 140.6L991.8 140.6ZM1098.8 116.8Q1098.8 123.7 1100.8 129.1Q1102.9 134.5 1110.0 135.5Q1112.3 135.7 1112.3 137.9L1112.3 144.2Q1112.3 146.9 1109.4 146.9Q1100.1 146.9 1093.9 147.9Q1087.7 149.0 1083.3 150.6Q1078.8 152.2 1074.4 154.1Q1073.7 154.5 1073.1 154.5L1072.5 154.5Q1072.2 154.5 1072.2 153.7Q1072.2 152.9 1072.5 150.0Q1072.9 147.1 1073.4 143.4Q1073.9 139.7 1074.3 137.0Q1073.3 139.5 1070.2 143.7Q1067.0 147.8 1061.0 151.1Q1055.1 154.5 1045.4 154.5Q1038.9 154.5 1031.6 151.8Q1024.3 149.2 1017.8 143.3Q1011.4 137.4 1007.3 127.8Q1003.2 118.2 1003.2 104.3Q1003.2 86.6 1009.6 75.7Q1015.9 64.8 1026.1 59.7Q1036.3 54.5 1047.7 54.5Q1057.0 54.5 1064.7 57.4Q1072.5 60.2 1078.4 65.5Q1083.4 63.5 1086.9 61.7Q1090.4 59.9 1092.9 58.0Q1093.8 57.2 1094.9 56.4Q1095.9 55.7 1097.2 54.9Q1097.8 54.5 1098.2 54.5L1098.4 54.5Q1098.8 54.5 1098.8 54.9L1098.8 116.8ZM1072.2 87.0Q1071.6 83.2 1069.4 78.6Q1067.2 73.9 1062.8 70.6Q1058.5 67.3 1051.1 67.3Q1042.0 67.3 1036.8 71.7Q1031.7 76.2 1029.7 83.2Q1027.7 90.2 1027.7 98.2Q1027.7 116.5 1035.0 127.1Q1042.3 137.8 1053.9 137.8Q1060.8 137.8 1064.7 134.8Q1068.6 131.9 1070.3 128.8Q1072.0 125.8 1072.2 125.2L1072.2 87.0ZM1225.1 90.1L1225.1 122.5Q1225.1 133.0 1228.5 136.8Q1231.8 140.6 1237.3 140.6L1238.8 140.6Q1241.6 140.6 1241.6 143.4L1241.6 149.2Q1241.6 152.0 1238.8 152.0L1188.3 152.0Q1185.4 152.0 1185.4 149.2L1185.4 143.4Q1185.4 140.6 1188.3 140.6L1189.6 140.6Q1193.6 140.6 1196.0 136.8Q1198.5 133.0 1198.5 122.5L1198.5 90.1Q1198.5 80.9 1195.7 76.1Q1192.8 71.2 1184.8 71.2Q1180.1 71.2 1175.3 73.6Q1170.6 76.0 1167.0 79.7Q1163.4 83.4 1161.7 87.6L1161.7 122.5Q1161.7 130.2 1165.0 135.4Q1168.3 140.6 1173.8 140.6L1174.2 140.6Q1177.0 140.6 1177.0 143.4L1177.0 149.2Q1177.0 152.0 1174.2 152.0L1120.8 152.0Q1118.0 152.0 1118.0 149.2L1118.0 143.4Q1118.0 140.6 1120.8 140.6L1121.2 140.6Q1128.2 140.6 1131.6 135.4Q1135.1 130.2 1135.1 122.5L1135.1 98.6Q1135.1 93.5 1134.4 88.7Q1133.7 84.0 1131.3 80.7Q1129.0 77.3 1123.7 76.8Q1121.6 76.6 1121.6 74.3L1121.6 67.8Q1121.6 65.9 1124.2 65.4Q1137.9 63.3 1147.7 58.9Q1157.5 54.5 1161.3 51.9Q1162.2 51.1 1162.8 51.1L1163.0 51.1Q1163.4 51.1 1163.4 51.5Q1163.4 51.9 1163.2 53.0L1159.9 76.4Q1162.6 72.0 1167.0 67.0Q1171.3 61.9 1177.8 58.2Q1184.3 54.5 1192.8 54.5Q1203.1 54.5 1209.5 57.6Q1216.0 60.6 1219.3 65.8Q1222.6 70.9 1223.9 77.2Q1225.1 83.4 1225.1 90.1ZM1345.8 116.8Q1345.8 123.7 1347.8 129.1Q1349.9 134.5 1357.0 135.5Q1359.3 135.7 1359.3 137.9L1359.3 144.2Q1359.3 146.9 1356.4 146.9Q1347.1 146.9 1340.9 147.9Q1334.7 149.0 1330.3 150.6Q1325.8 152.2 1321.4 154.1Q1320.7 154.5 1320.1 154.5L1319.7 154.5Q1319.2 154.5 1319.2 153.9Q1319.5 149.5 1320.0 145.3Q1320.5 141.2 1321.3 137.0Q1320.3 139.5 1317.2 143.7Q1314.0 147.8 1308.0 151.1Q1302.1 154.5 1292.4 154.5Q1285.9 154.5 1278.6 151.8Q1271.3 149.2 1264.8 143.3Q1258.4 137.4 1254.3 127.8Q1250.2 118.2 1250.2 104.3Q1250.2 86.6 1256.6 75.7Q1262.9 64.8 1273.1 59.7Q1283.3 54.5 1294.7 54.5Q1309.1 54.5 1319.2 63.5L1319.2 51.3Q1319.2 46.2 1318.5 41.4Q1317.8 36.7 1315.5 33.3Q1313.3 30.0 1308.0 29.5Q1305.7 29.3 1305.7 27.0L1305.7 20.5Q1305.7 19.4 1306.4 18.9Q1307.2 18.4 1308.5 18.1Q1323.5 13.1 1332.0 8.2Q1340.4 3.2 1344.2 0.4Q1344.8 0.0 1345.2 0.0L1345.4 0.0Q1345.8 0.0 1345.8 0.4L1345.8 116.8ZM1319.2 90.4Q1319.2 81.5 1313.4 75.3Q1307.6 69.0 1298.1 69.0Q1289.0 69.0 1283.8 73.0Q1278.7 77.0 1276.7 83.6Q1274.7 90.2 1274.7 98.2Q1274.7 116.5 1282.0 127.1Q1289.3 137.8 1300.9 137.8Q1306.1 137.8 1309.9 135.2Q1313.7 132.6 1316.0 128.8Q1318.4 125.0 1319.2 121.6L1319.2 90.4Z" fill="#EAF2F8"/></g>
</svg>